<?xml version="1.0" encoding="UTF-8"?>
<!DOCTYPE svg PUBLIC "-//W3C//DTD SVG 1.1//EN" "http://www.w3.org/Graphics/SVG/1.1/DTD/svg11.dtd">
<!-- Creator: CorelDRAW 2020 (64-Bit) -->
<svg xmlns="http://www.w3.org/2000/svg" xml:space="preserve" width="512px" height="152px" version="1.1" shape-rendering="geometricPrecision" text-rendering="geometricPrecision" image-rendering="optimizeQuality" fill-rule="evenodd" clip-rule="evenodd"
viewBox="0 0 107200 31700"
 xmlns:xlink="http://www.w3.org/1999/xlink"
 xmlns:xodm="http://www.corel.com/coreldraw/odm/2003">
 <defs>
     <linearGradient id="id0" gradientUnits="userSpaceOnUse" x1="24500" y1="1400" x2="10900" y2="31000">
      <stop offset="0" stop-opacity="1" stop-color="#4CE5AE"/>
      <stop offset="0.411765" stop-opacity="1" stop-color="#49CC8C"/>
      <stop offset="1" stop-opacity="1" stop-color="#45B369"/>
     </linearGradient>
     <linearGradient id="id1" gradientUnits="userSpaceOnUse" x1="21000" y1="26300" x2="29400" y2="20300">
      <stop offset="0" stop-opacity="1" stop-color="#0056E0"/>
      <stop offset="1" stop-opacity="1" stop-color="#00E5B8"/>
     </linearGradient>
     <linearGradient id="id2" gradientUnits="userSpaceOnUse" x1="63500" y1="27100" x2="100900" y2="25500">
      <stop offset="0" stop-opacity="1" stop-color="#0056E0"/>
      <stop offset="1" stop-opacity="1" stop-color="#00E5B8"/>
     </linearGradient>
     <linearGradient id="id3" gradientUnits="userSpaceOnUse" x1="63500" y1="27100" x2="100900" y2="25500">
      <stop offset="0" stop-opacity="1" stop-color="#0056E0"/>
      <stop offset="1" stop-opacity="1" stop-color="#00E5B8"/>
     </linearGradient>
     <linearGradient id="id4" gradientUnits="userSpaceOnUse" x1="63500" y1="27100" x2="100900" y2="25500">
      <stop offset="0" stop-opacity="1" stop-color="#0056E0"/>
      <stop offset="1" stop-opacity="1" stop-color="#00E5B8"/>
     </linearGradient>
     <linearGradient id="id5" gradientUnits="userSpaceOnUse" x1="63500" y1="27100" x2="100900" y2="25500">
      <stop offset="0" stop-opacity="1" stop-color="#0056E0"/>
      <stop offset="1" stop-opacity="1" stop-color="#00E5B8"/>
     </linearGradient>
     <linearGradient id="id6" gradientUnits="userSpaceOnUse" x1="63500" y1="27100" x2="100900" y2="25500">
      <stop offset="0" stop-opacity="1" stop-color="#0056E0"/>
      <stop offset="1" stop-opacity="1" stop-color="#00E5B8"/>
     </linearGradient>
     <linearGradient id="id7" gradientUnits="userSpaceOnUse" x1="63500" y1="27100" x2="100900" y2="25500">
      <stop offset="0" stop-opacity="1" stop-color="#0056E0"/>
      <stop offset="1" stop-opacity="1" stop-color="#00E5B8"/>
     </linearGradient>
 </defs>
 <g id="Capa_x0020_1">
  <metadata id="CorelCorpID_0Corel-Layer"/>
  <g id="_2249588996400">
   <g>
    <path fill="url(#id0)" d="M21100 23200c-3800,2100 -8100,3700 -12600,4100 -2000,100 -5200,0 -6000,-1400 -300,-500 -200,-1100 0,-1600 200,-500 500,-700 900,-1000 600,-600 1500,-1000 2400,-1400 1700,-700 3700,-1300 5600,-1900 3900,-1100 7700,-2300 10800,-4200 12400,-7400 1000,-22300 -10400,-12600 -2600,2400 -4600,4700 -6300,7800 -400,600 -600,1200 -900,1800 -800,1700 -1600,3700 -2300,6100 300,-300 600,-500 900,-700 600,-1000 1300,-2400 1600,-2900 800,-1300 1600,-2500 2500,-3700 7900,-9800 14300,-2900 8900,1700 -3500,3000 -11500,5200 -14600,8400 -200,300 -500,600 -700,900 -1800,2600 -800,5600 1800,7200 4400,2600 12000,2100 17200,1100 800,-200 1600,-400 2500,-600l2300 -700 0 0c-700,-3600 -1200,-5400 -3600,-6400z"/>
    <path fill="url(#id1)" d="M25100 17800c600,2900 900,3800 4400,4400 -2900,600 -3800,800 -4400,4300 -600,-2900 -900,-3800 -4400,-4300 3000,-600 3800,-900 4400,-4400z"/>
   </g>
   <g>
    <g>
     <path fill="#0E2A47" d="M43700 22800c-1100,0 -2000,-200 -2800,-600 -700,-400 -1300,-1000 -1700,-1800 -500,-700 -700,-1600 -700,-2700 0,-1000 200,-1900 700,-2600 400,-800 1000,-1400 1700,-1800 800,-400 1600,-600 2700,-600 1000,0 1800,200 2500,600 700,400 1300,900 1700,1600 400,800 600,1600 600,2600l0 800 -7500 0c100,900 300,1500 800,1900 500,500 1100,700 1900,700 600,0 1100,-100 1500,-400 400,-200 600,-500 800,-1000l2400 0c-200,1100 -700,1900 -1600,2500 -800,500 -1800,800 -3000,800zm-2800 -6100l5100 0c-100,-700 -300,-1200 -700,-1500 -500,-400 -1000,-600 -1700,-600 -700,0 -1300,200 -1800,600 -400,300 -700,800 -900,1500zm13300 6100c-1000,0 -1800,-200 -2500,-600 -700,-400 -1200,-1000 -1600,-1800 -400,-700 -500,-1600 -500,-2600 0,-1100 100,-1900 500,-2700 300,-800 800,-1300 1500,-1800 700,-400 1500,-600 2400,-600 700,0 1400,200 1900,400 500,300 900,700 1200,1200l100 0 0 -5300 2400 0 0 11200 1200 0 0 2400 -2500 0 0 -1500 -700 0c-300,500 -800,1000 -1300,1300 -600,300 -1300,400 -2100,400zm400 -2100c800,0 1400,-200 1900,-600 400,-500 700,-1100 700,-1800l0 -1100c0,-700 -300,-1300 -700,-1700 -500,-500 -1100,-700 -1900,-700 -800,0 -1500,300 -2000,800 -400,500 -600,1200 -600,2200 0,900 200,1600 600,2100 500,600 1200,800 2000,800zm7900 1900l0 -9700 2400 0 0 9700 -2400 0zm1200 -10800c-300,0 -700,-100 -900,-400 -300,-200 -400,-600 -400,-900 0,-400 100,-700 400,-1000 200,-200 600,-400 900,-400 400,0 700,200 1000,400 200,300 400,600 400,1000 0,400 -100,700 -400,900 -300,300 -600,400 -1000,400zm6500 10800c-700,0 -1200,-100 -1500,-500 -400,-300 -500,-800 -500,-1400l0 -5900 -1800 0 0 -1900 1800 0 0 -2900 2300 0 0 2900 2400 0 0 1900 -2300 0 0 5900 2500 0 0 1900 -2900 0zm4400 0l0 -13600 2400 0 0 5400 100 0c300,-600 700,-1000 1300,-1300 500,-200 1200,-400 1900,-400 1200,0 2200,400 2900,1100 700,800 1100,1700 1100,3000l0 5800 -2400 0 0 -5400c0,-800 -200,-1300 -600,-1700 -500,-400 -1100,-600 -1800,-600 -800,0 -1400,200 -1800,600 -500,400 -700,900 -700,1700l0 5400 -2400 0zm16500 200c-1000,0 -1900,-200 -2700,-600 -800,-400 -1400,-1000 -1800,-1800 -400,-700 -600,-1600 -600,-2600 0,-1100 200,-2000 600,-2700 400,-800 1000,-1400 1800,-1800 800,-400 1700,-600 2700,-600 1100,0 2000,200 2700,600 800,400 1400,1000 1800,1800 400,700 600,1600 600,2700 0,1000 -200,1900 -600,2600 -400,800 -1000,1400 -1800,1800 -700,400 -1700,600 -2700,600zm0 -2100c900,0 1500,-200 2000,-800 500,-500 700,-1200 700,-2100 0,-1000 -200,-1700 -700,-2200 -500,-500 -1100,-800 -2000,-800 -900,0 -1500,300 -2000,800 -500,500 -700,1200 -700,2200 0,900 200,1600 700,2100 500,600 1100,800 2000,800zm7700 1900l0 -7300 -1200 0 0 -2400 2400 0 0 1900 700 0c300,-700 700,-1200 1200,-1500 500,-200 900,-400 1400,-500 700,500 1100,1100 1400,2000l0 100 -900 0c-900,0 -1600,200 -2000,700 -400,600 -700,1200 -700,2100l0 4900 -2300 0z"/>
     <path fill="#0E2A47" d="M105100 9900c300,1400 400,1800 2100,2100 -1400,300 -1800,400 -2100,2100 -300,-1400 -400,-1800 -2100,-2100 1400,-300 1800,-400 2100,-2100z"/>
    </g>
    <path fill="url(#id2)" fill-rule="nonzero" d="M64500 25500c0,-100 -100,-200 -200,-300 -200,-100 -300,-100 -600,-100 -400,0 -600,100 -600,300 0,100 0,200 100,200 0,100 100,100 200,100l900 100c200,0 400,100 500,200 100,100 200,200 200,400 0,300 -100,500 -300,600 -200,100 -500,200 -900,200 -400,0 -700,-100 -900,-200 -200,-200 -400,-400 -400,-700l500 0c0,200 100,400 200,400 100,100 300,100 600,100 200,0 400,0 500,-100 200,0 200,-100 200,-200 0,-100 0,-200 -100,-300 0,0 -100,0 -200,-100l-900 0c-200,-100 -400,-100 -500,-200 -100,-100 -200,-200 -200,-400 0,-300 100,-400 300,-600 200,-100 500,-100 800,-100 800,0 1200,200 1200,700l-400 0z"/>
    <polygon id="1" fill="url(#id3)" fill-rule="nonzero" points="72400,25200 71300,25200 71300,27100 70900,27100 70900,25200 69900,25200 69900,24800 72400,24800 "/>
    <path id="2" fill="url(#id4)" fill-rule="nonzero" d="M79900 24800l0 1400c0,300 -100,600 -300,700 -200,200 -500,300 -900,300 -400,0 -700,-100 -900,-300 -200,-100 -300,-400 -300,-700l0 -1400 400 0 0 1400c0,200 100,400 200,500 200,100 300,100 600,100 200,0 400,0 600,-100 100,-100 200,-300 200,-500l0 -1400 400 0z"/>
    <path id="3" fill="url(#id5)" fill-rule="nonzero" d="M86500 24800c700,0 1100,400 1100,1200 0,700 -400,1100 -1100,1100l-1300 0 0 -2300 1300 0zm-900 400l0 1600 800 0c200,0 400,-100 600,-200 100,-200 200,-400 200,-600 0,-300 -100,-500 -200,-600 -200,-200 -400,-200 -600,-200l-800 0z"/>
    <polygon id="4" fill="url(#id6)" fill-rule="nonzero" points="92800,27100 92800,24800 93200,24800 93200,27100 "/>
    <path id="5" fill="url(#id7)" fill-rule="nonzero" d="M99800 24800c300,0 500,0 700,100 200,100 400,200 500,400 100,200 200,400 200,700 0,200 -100,400 -200,600 -100,200 -300,300 -500,400 -200,100 -400,200 -700,200 -300,0 -500,-100 -700,-200 -200,-100 -400,-200 -500,-400 -100,-200 -200,-400 -200,-600 0,-300 100,-500 200,-700 100,-200 300,-300 500,-400 200,-100 400,-100 700,-100zm0 2000c300,0 500,-100 700,-200 100,-100 200,-400 200,-600 0,-300 -100,-500 -200,-700 -200,-100 -400,-200 -700,-200 -300,0 -500,100 -700,200 -200,200 -200,400 -200,700 0,200 0,500 200,600 200,100 400,200 700,200z"/>
   </g>
  </g>
 </g>
</svg>
