<?xml version="1.0" encoding="UTF-8"?>
<!DOCTYPE svg PUBLIC "-//W3C//DTD SVG 1.1//EN" "http://www.w3.org/Graphics/SVG/1.1/DTD/svg11.dtd">
<!-- Creator: CorelDRAW 2020 (64-Bit) -->
<svg xmlns="http://www.w3.org/2000/svg" xml:space="preserve" width="385px" height="492px" version="1.1" shape-rendering="geometricPrecision" text-rendering="geometricPrecision" image-rendering="optimizeQuality" fill-rule="evenodd" clip-rule="evenodd"
viewBox="0 0 84000 107400"
 xmlns:xlink="http://www.w3.org/1999/xlink"
 xmlns:xodm="http://www.corel.com/coreldraw/odm/2003">
 <defs>
   <clipPath id="id0">
    <path d="M8900 0l66100 0c5000,0 9000,4000 9000,8900l0 89600c0,4900 -4000,8900 -9000,8900l-66100 0c-4900,0 -8900,-4000 -8900,-8900l0 -89600c0,-4900 4000,-8900 8900,-8900z"/>
   </clipPath>
 </defs>
 <g id="Capa_x0020_1">
  <metadata id="CorelCorpID_0Corel-Layer"/>
  <path fill="#EAEAEA" d="M8900 0l66100 0c5000,0 9000,4000 9000,8900l0 89600c0,4900 -4000,8900 -9000,8900l-66100 0c-4900,0 -8900,-4000 -8900,-8900l0 -89600c0,-4900 4000,-8900 8900,-8900z"/>
  <g clip-path="url(#id0)">
   <g id="_1810856342048">
    <g>
     <path id="1" fill="#EAEAEA" fill-rule="nonzero" d="M-11700 -200l107300 0c200,0 300,100 300,300l0 107300c0,100 -100,200 -300,200l-107300 0c-100,0 -200,-100 -200,-200l0 -107300c0,-200 100,-300 200,-300z"/>
     <g>
      <path fill="#FAFAFA" fill-rule="nonzero" fill-opacity="0.250980" d="M42000 74600c-11500,0 -20900,-9300 -20900,-20900 0,-11600 9400,-21000 20900,-21000 11600,0 21000,9400 21000,21000 0,11600 -9400,20900 -21000,20900zm0 -14900c-3300,0 -6000,-2700 -6000,-6000 0,-3300 2700,-6000 6000,-6000 3400,0 6100,2700 6100,6000 0,3300 -2700,6000 -6100,6000z"/>
      <path fill="#C9C9C9" fill-rule="nonzero" fill-opacity="0.125490" d="M42000 74700c-5800,0 -11000,-2300 -14800,-6100 -3900,-3800 -6200,-9100 -6200,-14900 0,-5800 2300,-11100 6200,-14900 3800,-3800 9000,-6200 14800,-6200 5900,0 11100,2400 14900,6200 3800,3800 6200,9100 6200,14900 0,5800 -2400,11100 -6200,14900 -3800,3800 -9000,6100 -14900,6100zm-14700 -6300c3800,3800 9000,6100 14700,6100 5800,0 11000,-2300 14800,-6100 3700,-3800 6100,-9000 6100,-14700 0,-5800 -2400,-11000 -6100,-14700 -3800,-3800 -9000,-6100 -14800,-6100 -5700,0 -10900,2300 -14700,6100 -3800,3700 -6100,8900 -6100,14700 0,5700 2300,10900 6100,14700zm14700 -8600c-1700,0 -3200,-700 -4300,-1800 -1100,-1100 -1800,-2600 -1800,-4300 0,-1700 700,-3200 1800,-4400 1100,-1100 2600,-1800 4300,-1800 1700,0 3300,700 4400,1800 1100,1200 1800,2700 1800,4400 0,1700 -700,3200 -1800,4300 -1100,1100 -2700,1800 -4400,1800zm-4100 -1900c1000,1100 2500,1700 4100,1700 1700,0 3200,-600 4200,-1700 1100,-1100 1800,-2600 1800,-4200 0,-1600 -700,-3100 -1800,-4200 -1000,-1100 -2500,-1700 -4200,-1700 -1600,0 -3100,600 -4100,1700 -1100,1100 -1800,2600 -1800,4200 0,1600 700,3100 1800,4200z"/>
     </g>
     <path fill="black" fill-rule="nonzero" fill-opacity="0.250980" d="M12100 83800l25800 -25800 100 200 -25700 25700 -200 -100zm34300 -34300l25700 -25700 200 100 -25800 25800 -100 -200z"/>
     <path fill="black" fill-rule="nonzero" fill-opacity="0.250980" d="M12000 53400l24000 0 0 200 -24000 0 0 -200zm36100 0l24000 0 0 200 -24000 0 0 -200z"/>
     <path fill="black" fill-rule="nonzero" fill-opacity="0.250980" d="M41800 83700l0 -24000 200 0 0 24000 -200 0zm0 -36000l0 -24000 200 0 0 24000 -200 0z"/>
     <path fill="black" fill-rule="nonzero" fill-opacity="0.250980" d="M71900 83900l-25800 -25700 200 -200 25700 25800 -100 100zm-34300 -34300l-25700 -25700 100 -100 25700 25700 -100 100z"/>
     <path fill="white" fill-rule="nonzero" fill-opacity="0.501961" d="M42000 62400c-4800,0 -8700,-3900 -8700,-8700 0,-4800 3900,-8700 8700,-8700 4900,0 8800,3900 8800,8700 0,4800 -3900,8700 -8800,8700z"/>
     <path fill="#C9C9C9" fill-rule="nonzero" fill-opacity="0.501961" d="M42000 62500c-2400,0 -4600,-1000 -6200,-2600 -1600,-1600 -2600,-3800 -2600,-6200 0,-2400 1000,-4700 2600,-6200 1600,-1600 3800,-2600 6200,-2600 2500,0 4700,1000 6300,2600 1600,1500 2600,3800 2600,6200 0,2400 -1000,4600 -2600,6200 -1600,1600 -3800,2600 -6300,2600zm-6000 -2700c1500,1500 3700,2500 6000,2500 2400,0 4600,-1000 6100,-2500 1600,-1600 2500,-3700 2500,-6100 0,-2400 -900,-4500 -2500,-6100 -1500,-1600 -3700,-2500 -6100,-2500 -2300,0 -4500,900 -6000,2500 -1600,1600 -2600,3700 -2600,6100 0,2400 1000,4500 2600,6100z"/>
     <g>
      <g>
       <path fill="#B2B2B2" d="M40900 51000c-800,0 -1500,700 -1500,1600l0 2200c0,0 0,100 0,100l1100 -600c300,-100 600,-100 900,0l200 100c300,200 600,100 800,0l700 -600c400,-300 900,-300 1300,100l300 300 0 -700c0,0 100,-100 200,-100 100,0 100,100 100,100l0 1300c0,1000 -800,1900 -1800,1900l-2300 0c-1000,0 -1800,-900 -1800,-1900l0 -2200c0,-1100 800,-1900 1800,-1900l1900 0c0,0 100,100 100,200 0,0 -100,100 -100,100l-1900 0zm0 5400c-700,0 -1300,-500 -1500,-1200l1200 -600c200,-100 400,-100 600,0l300 100c300,200 800,100 1100,-100l600 -600c300,-200 700,-200 1000,100l500 500 0 200c0,900 -700,1600 -1500,1600l-2300 0z"/>
       <path fill="#B2B2B2" d="M41800 52400c0,400 -400,700 -700,700 -400,0 -800,-300 -800,-700 0,-400 400,-700 800,-700 300,0 700,300 700,700zm-300 0c0,200 -200,400 -400,400 -300,0 -500,-200 -500,-400 0,-200 200,-400 500,-400 200,0 400,200 400,400z"/>
       <path fill="#B2B2B2" fill-rule="nonzero" d="M44000 51000c100,0 200,100 200,100l0 500 400 0c100,0 100,0 100,100 0,100 0,200 -100,200l-400 0 0 400c0,100 -100,100 -200,100 -100,0 -100,0 -100,-100l0 -400 -400 -100c-100,0 -200,0 -200,-100 0,-100 100,-100 200,-100l400 0 0 -500c0,0 0,-100 100,-100l0 0z"/>
      </g>
     </g>
    </g>
   </g>
  </g>
  <path fill="none" d="M8900 0l66100 0c5000,0 9000,4000 9000,8900l0 89600c0,4900 -4000,8900 -9000,8900l-66100 0c-4900,0 -8900,-4000 -8900,-8900l0 -89600c0,-4900 4000,-8900 8900,-8900z"/>
 </g>
</svg>
