<?xml version="1.0" encoding="UTF-8"?>
<!DOCTYPE svg PUBLIC "-//W3C//DTD SVG 1.1//EN" "http://www.w3.org/Graphics/SVG/1.1/DTD/svg11.dtd">
<!-- Creator: CorelDRAW 2020 (64-Bit) -->
<svg xmlns="http://www.w3.org/2000/svg" xml:space="preserve" width="385px" height="385px" version="1.1" shape-rendering="geometricPrecision" text-rendering="geometricPrecision" image-rendering="optimizeQuality" fill-rule="evenodd" clip-rule="evenodd"
viewBox="0 0 85800 85800"
 xmlns:xlink="http://www.w3.org/1999/xlink"
 xmlns:xodm="http://www.corel.com/coreldraw/odm/2003">
 <defs>
   <clipPath id="id0">
    <path d="M9100 0l67600 0c5000,0 9100,4100 9100,9100l0 67600c0,5000 -4100,9100 -9100,9100l-67600 0c-5000,0 -9100,-4100 -9100,-9100l0 -67600c0,-5000 4100,-9100 9100,-9100z"/>
   </clipPath>
 </defs>
 <g id="Capa_x0020_1">
  <metadata id="CorelCorpID_0Corel-Layer"/>
  <path fill="#EAEAEA" d="M9100 0l67600 0c5000,0 9100,4100 9100,9100l0 67600c0,5000 -4100,9100 -9100,9100l-67600 0c-5000,0 -9100,-4100 -9100,-9100l0 -67600c0,-5000 4100,-9100 9100,-9100z"/>
  <g clip-path="url(#id0)">
   <g id="_1774307170448">
    <g>
     <path id="1" fill="#EAEAEA" fill-rule="nonzero" d="M-11900 -12200l109600 0c200,0 300,100 300,300l0 109600c0,200 -100,300 -300,300l-109600 0c-200,0 -300,-100 -300,-300l0 -109600c0,-200 100,-300 300,-300z"/>
     <g>
      <path fill="#FAFAFA" fill-rule="nonzero" fill-opacity="0.250980" d="M43000 64300c-11900,0 -21400,-9600 -21400,-21400 0,-11800 9600,-21400 21400,-21400 11800,0 21400,9600 21400,21400 0,11800 -9600,21400 -21400,21400zm0 -15300c-3400,0 -6200,-2700 -6200,-6100 0,-3400 2800,-6200 6200,-6200 3400,0 6100,2800 6100,6200 0,3400 -2700,6100 -6100,6100z"/>
      <path fill="#C9C9C9" fill-rule="nonzero" fill-opacity="0.125490" d="M43000 64400c-6000,0 -11300,-2400 -15200,-6300 -3900,-3900 -6300,-9300 -6300,-15200 0,-6000 2400,-11300 6300,-15200 3900,-3900 9200,-6300 15200,-6300 5900,0 11300,2400 15200,6300 3900,3900 6300,9200 6300,15200 0,5900 -2400,11300 -6300,15200 -3900,3900 -9300,6300 -15200,6300zm-15100 -6500c3900,3900 9200,6300 15100,6300 5900,0 11200,-2400 15000,-6300 3900,-3800 6300,-9100 6300,-15000 0,-5900 -2400,-11200 -6300,-15100 -3800,-3800 -9100,-6200 -15000,-6200 -5900,0 -11200,2400 -15100,6200 -3800,3900 -6200,9200 -6200,15100 0,5900 2400,11200 6200,15000zm15100 -8700c-1800,0 -3300,-700 -4500,-1900 -1100,-1100 -1800,-2700 -1800,-4400 0,-1800 700,-3300 1800,-4500 1200,-1100 2700,-1800 4500,-1800 1700,0 3300,700 4400,1800 1200,1200 1900,2700 1900,4500 0,1700 -700,3300 -1900,4400 -1100,1200 -2700,1900 -4400,1900zm-4300 -2000c1100,1100 2600,1700 4300,1700 1600,0 3200,-600 4300,-1700 1100,-1100 1700,-2600 1700,-4300 0,-1700 -600,-3200 -1700,-4300 -1100,-1100 -2700,-1800 -4300,-1800 -1700,0 -3200,700 -4300,1800 -1100,1100 -1800,2600 -1800,4300 0,1700 700,3200 1800,4300z"/>
     </g>
     <path fill="black" fill-rule="nonzero" fill-opacity="0.250980" d="M12400 73600l26300 -26300 100 200 -26300 26300 -100 -200zm35000 -35000l26300 -26300 200 100 -26300 26400 -200 -200z"/>
     <path fill="black" fill-rule="nonzero" fill-opacity="0.250980" d="M12300 42600l24500 0 0 200 -24500 0 0 -200zm36800 0l24600 0 0 200 -24600 0 0 -200z"/>
     <path fill="black" fill-rule="nonzero" fill-opacity="0.250980" d="M42700 73600l0 -24600 200 0 0 24600 -200 0zm0 -36900l0 -24500 200 0 0 24500 -200 0z"/>
     <path fill="black" fill-rule="nonzero" fill-opacity="0.250980" d="M73400 73800l-26300 -26300 200 -200 26300 26300 -200 200zm-35000 -35100l-26300 -26300 200 -100 26300 26300 -200 100z"/>
     <path fill="white" fill-rule="nonzero" fill-opacity="0.501961" d="M43000 51800c-4900,0 -8900,-4000 -8900,-8900 0,-4900 4000,-8900 8900,-8900 4900,0 8900,4000 8900,8900 0,4900 -4000,8900 -8900,8900z"/>
     <path fill="#C9C9C9" fill-rule="nonzero" fill-opacity="0.501961" d="M43000 51900c-2500,0 -4800,-1000 -6400,-2600 -1600,-1700 -2600,-3900 -2600,-6400 0,-2500 1000,-4800 2600,-6400 1600,-1600 3900,-2600 6400,-2600 2500,0 4700,1000 6300,2600 1700,1600 2700,3900 2700,6400 0,2500 -1000,4700 -2700,6400 -1600,1600 -3800,2600 -6300,2600zm-6200 -2800c1500,1600 3700,2600 6200,2600 2400,0 4600,-1000 6200,-2600 1600,-1600 2600,-3800 2600,-6200 0,-2500 -1000,-4600 -2600,-6200 -1600,-1600 -3800,-2600 -6200,-2600 -2500,0 -4700,1000 -6200,2600 -1600,1600 -2600,3700 -2600,6200 0,2400 1000,4600 2600,6200z"/>
     <g>
      <g>
       <path fill="#B2B2B2" d="M41800 40100c-900,0 -1600,700 -1600,1600l0 2300c0,100 0,100 0,100l1200 -600c200,-100 600,-100 900,0l200 200c300,100 600,0 800,-100l700 -600c400,-400 1000,-300 1400,0l300 400 0 -700c0,0 100,-100 200,-100 0,0 100,100 100,100l0 1300c0,1100 -800,1900 -1900,1900l-2300 0c-1000,0 -1900,-800 -1900,-1900l0 -2300c0,-1000 900,-1900 1900,-1900l1900 0c100,0 100,100 100,200 0,100 0,100 -100,100l-1900 0zm0 5500c-700,0 -1400,-500 -1500,-1200l1200 -600c200,-100 400,-100 600,0l300 100c400,200 800,100 1100,-100l700 -600c300,-200 700,-200 1000,100l500 500 0 200c0,900 -700,1600 -1600,1600l-2300 0z"/>
       <path fill="#B2B2B2" d="M42700 41600c0,400 -300,700 -700,700 -400,0 -800,-300 -800,-700 0,-400 400,-700 800,-700 400,0 700,300 700,700zm-300 0c0,200 -200,400 -400,400 -300,0 -500,-200 -500,-400 0,-300 200,-500 500,-500 200,0 400,200 400,500z"/>
       <path fill="#B2B2B2" fill-rule="nonzero" d="M45000 40100c100,0 100,100 100,200l0 400 500 0c100,0 100,100 100,200 0,0 0,100 -100,100l-500 0 0 400c0,100 0,200 -100,200 -100,0 -100,-100 -100,-200l0 -400 -500 0c-100,0 -100,-100 -100,-100 0,-100 0,-200 100,-200l500 0 0 -400c0,-100 0,-200 100,-200l0 0z"/>
      </g>
     </g>
    </g>
   </g>
  </g>
  <path fill="none" d="M9100 0l67600 0c5000,0 9100,4100 9100,9100l0 67600c0,5000 -4100,9100 -9100,9100l-67600 0c-5000,0 -9100,-4100 -9100,-9100l0 -67600c0,-5000 4100,-9100 9100,-9100z"/>
 </g>
</svg>
